<?xml version="1.0" encoding="utf-8"?>
<!-- Generator: Adobe Illustrator 24.3.0, SVG Export Plug-In . SVG Version: 6.00 Build 0)  -->
<svg version="1.1" id="Livello_1" xmlns="http://www.w3.org/2000/svg" xmlns:xlink="http://www.w3.org/1999/xlink" x="0px" y="0px"
	 viewBox="0 0 841.9 595.3" style="enable-background:new 0 0 841.9 595.3;" xml:space="preserve">
<style type="text/css">
	.st0{enable-background:new    ;}
</style>
<g class="st0">
	<path d="M47.6,165.9h110.1v6.7h-20.5v109.4h70.3V172.6h-20.8v-6.7h110.5v6.7h-20.8v233.8h20.8v6.7H186.7v-6.7h20.8V291.3h-70.3
		v115.2h20.5v6.7H47.6v-6.7h20.8V172.6H47.6V165.9z"/>
	<path d="M306.8,245h86.5v161.7h19.8v6.3H308.2v-6.3h19.4V251.4h-20.8L306.8,245L306.8,245z M360.2,220.6c-12.5,0-21.4-3.2-26.6-9.6
		c-5.3-6.3-8-14.2-8-23.7c0-9.4,2.9-17.2,8.7-23.3c5.7-6.1,14.6-9.2,26.3-9.2c11.8,0,20.7,2.8,26.8,8.3c6.1,5.5,9.2,13.4,9.2,23.7
		s-3,18.4-8.9,24.6C381.8,217.6,372.6,220.6,360.2,220.6z"/>
	<path d="M540.3,413.1l-3.8-24.7c-8,18.9-24.2,28.3-48.7,28.3c-20.2,0-35.9-7.3-47.1-21.9c-11.2-14.6-16.8-36.4-16.8-65.4
		c0-58.7,23.3-88,69.9-88c20.7,0,34.3,5.8,40.9,17.3V154.6h-21.5v-6.3h88.2v258.5h17.3v6.3H540.3z M495.7,389.3
		c2.6,8.1,7.3,12.2,14.3,12.2c7,0,13-3,18-9.2c5.1-6.1,7.6-15.2,7.6-27.2v-77c0-10.1-2-18.7-6-25.7c-4-7.1-9.9-10.6-17.7-10.6
		c-7.8,0-13.1,5.2-15.9,15.6c-2.9,10.4-4.2,28.5-4.2,54.4V340C491.9,364.8,493.1,381.2,495.7,389.3z"/>
	<path d="M652.4,393.2c-15.2-15.6-22.8-37.5-22.8-65.4s8.5-49.3,25.6-64.1c17.1-14.8,38.8-22.3,65.2-22.3c53.5,0,79.1,26.8,77,80.6
		h-99.5v13.8c0,23.1,3,40.5,8.9,52.3c5.9,11.8,16.1,17.6,30.8,17.6c27.3,0,45.2-14.6,53.6-43.8l6.3,1.1c-4.5,17-12.5,30.1-24.2,39.5
		c-11.6,9.4-29.1,14.1-52.5,14.1C690.4,416.6,667.6,408.8,652.4,393.2z M698.1,315h36.4v-17.3c0-19-1.2-32.1-3.4-39
		c-2.2-7-6.7-10.5-13.4-10.5c-6.7,0-11.6,3.7-14.8,11.1s-4.7,20.2-4.7,38.4L698.1,315L698.1,315z"/>
</g>
</svg>
