<?xml version="1.0" encoding="utf-8"?>
<!-- Generator: Adobe Illustrator 24.3.0, SVG Export Plug-In . SVG Version: 6.00 Build 0)  -->
<svg version="1.1" id="Livello_1" xmlns="http://www.w3.org/2000/svg" xmlns:xlink="http://www.w3.org/1999/xlink" x="0px" y="0px"
	 viewBox="0 0 308.4 285" style="enable-background:new 0 0 308.4 285;" xml:space="preserve">
<path d="M302.49,32.25c-0.32-0.18-0.51-0.53-0.57-1.04l-2.12-15.3c-0.06-0.53,0.01-0.88,0.21-1.06c0.2-0.17,0.6-0.26,1.2-0.26v-0.8
	h-1.93h-0.43h-1.44h-1.56l-5.21,16.77c-0.01-0.28-0.02-0.58-0.04-0.85c-0.07-0.93-0.3-1.96-0.69-3.08l-4.44-12.84h-0.43h-1.44h-1.29
	h-1.93v0.8c0.59,0,0.99,0.09,1.2,0.26c0.2,0.17,0.27,0.53,0.18,1.06l-2.21,15.3c-0.08,0.51-0.28,0.86-0.6,1.04
	c-0.32,0.18-0.78,0.28-1.39,0.28v0.8h1.93h2.39h2.61v-0.8c-0.8,0-1.34-0.09-1.64-0.26c-0.3-0.17-0.4-0.53-0.32-1.06l2.05-14.24
	l5.06,16.35h0.15h0.86h2.05l5.16-16.34l1.95,14.23c0.06,0.53-0.06,0.88-0.35,1.06c-0.3,0.17-0.84,0.26-1.64,0.26v0.8h2.61h1.53h1.93
	v-0.8C303.27,32.52,302.81,32.43,302.49,32.25z"/>
<path d="M273.59,20.06c-0.99-0.58-2.18-0.87-3.57-0.87s-2.58,0.29-3.57,0.87c-0.99,0.58-1.75,1.42-2.27,2.5
	c-0.52,1.08-0.78,2.35-0.78,3.8s0.26,2.72,0.78,3.8c0.52,1.08,1.28,1.92,2.27,2.5c0.99,0.58,2.18,0.87,3.57,0.87
	c2.08,0,3.71-0.64,4.87-1.93c1.17-1.29,1.75-3.03,1.75-5.24c0-1.45-0.26-2.72-0.78-3.8C275.33,21.48,274.58,20.64,273.59,20.06z
	 M272.67,30.51c-0.56,1.03-1.45,1.55-2.65,1.55c-1.21,0-2.09-0.52-2.65-1.55c-0.56-1.03-0.84-2.42-0.84-4.15s0.28-3.12,0.84-4.15
	c0.56-1.03,1.45-1.55,2.65-1.55c1.21,0,2.09,0.52,2.65,1.55c0.56,1.03,0.84,2.42,0.84,4.15S273.23,29.48,272.67,30.51z"/>
<path d="M258.89,19.46l-3.29,11.9l-2.57-9.82c-0.14-0.53-0.07-0.88,0.23-1.04c0.3-0.16,0.91-0.25,1.85-0.25v-0.8h-3.03h-1.23h-1.62
	v0.8c0.53,0,0.96,0.09,1.29,0.26c0.33,0.17,0.55,0.52,0.67,1.03l3.16,11.77H258l3.28-11.8c0.14-0.49,0.38-0.82,0.71-1
	c0.33-0.17,0.76-0.26,1.29-0.26v-0.8h-1.62H258.89z"/>
<path d="M241.75,19.19c-1.8,0-3.18,0.49-4.15,1.46s-1.46,2.31-1.46,4.03c0,0.67,0.02,1.18,0.06,1.5l9.09,0.28
	c-0.04,1.69-0.43,3-1.21,3.92c-0.82,0.96-1.95,1.44-3.4,1.44c-0.76,0-1.4-0.13-1.95-0.4c-0.54-0.27-0.98-0.59-1.3-0.98
	c-0.33-0.39-0.6-0.81-0.83-1.26l-0.61,0.25c0.2,0.63,0.51,1.25,0.92,1.85c0.41,0.6,0.99,1.13,1.73,1.58
	c0.75,0.45,1.66,0.67,2.74,0.67c2.08,0,3.73-0.62,4.94-1.85c1.21-1.24,1.81-3.03,1.81-5.38c0-2.31-0.57-4.07-1.7-5.29
	C245.29,19.8,243.74,19.19,241.75,19.19z M239.65,21.52c0.5-0.57,1.17-0.86,2.01-0.86c1.12,0,2.01,0.44,2.67,1.33
	c0.56,0.76,0.87,1.93,0.95,3.45l-6.2-0.5c-0.1-0.4-0.17-0.83-0.17-1.34C238.9,22.79,239.15,22.09,239.65,21.52z"/>
<path d="M219.51,25.4c0-0.17-0.01-0.33-0.01-0.51c0-1.37,0.23-2.42,0.67-3.14c0.45-0.73,1.14-1.09,2.08-1.09
	c0.78,0,1.37,0.21,1.78,0.63c0.41,0.42,0.61,0.97,0.61,1.64c0,0.18-0.02,0.36-0.05,0.52c-0.03,0.16-0.07,0.33-0.11,0.49v0.09
	l2.67,0.25l0.03-0.06c0.14-0.51,0.21-0.89,0.21-1.13c0-1.12-0.49-2.05-1.46-2.79c-0.97-0.74-2.25-1.1-3.85-1.1
	c-1.57,0-2.75,0.33-3.54,0.98c-0.79,0.65-1.28,1.44-1.49,2.36c-0.2,0.92-0.31,2-0.31,3.25v5.4c0,0.53-0.11,0.89-0.32,1.07
	c-0.21,0.18-0.58,0.28-1.09,0.28v0.8h1.62h2.36v-3.89h0.09c0.25,1.19,0.7,2.17,1.36,2.94c0.66,0.78,1.63,1.16,2.9,1.16
	c1.35,0,2.37-0.39,3.06-1.16c0.7-0.78,1.04-1.96,1.04-3.56c0-0.98-0.15-1.83-0.46-2.54L219.51,25.4z M224.48,31.11
	c-0.34,0.49-0.83,0.74-1.49,0.74c-0.63,0-1.22-0.26-1.75-0.77c-0.53-0.51-0.96-1.29-1.27-2.33c-0.21-0.7-0.35-1.53-0.42-2.46
	l5.15,1.05c0.18,0.45,0.28,1.05,0.28,1.81C224.99,29.97,224.82,30.62,224.48,31.11z"/>
<path d="M209.29,19.46v4.9h-0.06c-0.25-1.43-0.68-2.64-1.32-3.62c-0.63-0.98-1.55-1.47-2.76-1.47c-0.57,0-1.1,0.11-1.58,0.32
	c-0.48,0.21-0.84,0.52-1.09,0.9l1.01,2.82l0.34-0.09c-0.02-0.45,0.14-0.85,0.49-1.2c0.35-0.35,0.82-0.52,1.41-0.52
	c1.04,0,1.9,0.59,2.56,1.76c0.66,1.18,1,3.15,1,5.93v1.96c0,0.53-0.11,0.89-0.32,1.07c-0.21,0.18-0.58,0.28-1.09,0.28v0.8h1.62h2.51
	h1.62v-0.8c-0.51,0-0.87-0.09-1.09-0.28c-0.21-0.18-0.32-0.54-0.32-1.07v-9.56c0-0.53,0.11-0.89,0.32-1.07
	c0.21-0.18,0.58-0.28,1.09-0.28v-0.8h-1.62H209.29z"/>
<path d="M199.13,20.06c-0.99-0.58-2.18-0.87-3.57-0.87s-2.58,0.29-3.57,0.87c-0.99,0.58-1.75,1.42-2.27,2.5
	c-0.52,1.08-0.78,2.35-0.78,3.8s0.26,2.72,0.78,3.8c0.52,1.08,1.28,1.92,2.27,2.5c0.99,0.58,2.18,0.87,3.57,0.87
	c2.08,0,3.71-0.64,4.87-1.93c1.17-1.29,1.75-3.03,1.75-5.24c0-1.45-0.26-2.72-0.78-3.8C200.88,21.48,200.12,20.64,199.13,20.06z
	 M198.21,30.51c-0.56,1.03-1.45,1.55-2.65,1.55c-1.21,0-2.09-0.52-2.65-1.55c-0.56-1.03-0.84-2.42-0.84-4.15s0.28-3.12,0.84-4.15
	c0.56-1.03,1.45-1.55,2.65-1.55c1.21,0,2.09,0.52,2.65,1.55c0.56,1.03,0.84,2.42,0.84,4.15S198.77,29.48,198.21,30.51z"/>
<path d="M183.58,19.46v8.43c0,1.41-0.15,2.42-0.46,3.03c-0.31,0.61-0.89,0.92-1.75,0.92c-0.98,0-1.78-0.53-2.41-1.59
	c-0.62-1.06-0.93-2.84-0.93-5.33v-3.31c0-0.53,0.11-0.89,0.32-1.07c0.21-0.18,0.58-0.28,1.09-0.28v-0.8h-1.62h-2.73v11.71
	c0,0.53-0.11,0.89-0.32,1.07c-0.21,0.18-0.58,0.28-1.09,0.28v0.8h1.62h2.73v-3.28c0.18,0.89,0.58,1.67,1.21,2.33
	c0.75,0.78,1.75,1.16,3.02,1.16c1.45,0,2.52-0.39,3.22-1.16c0.69-0.78,1.04-1.98,1.04-3.62v-7.14c0-0.53,0.11-0.89,0.32-1.07
	c0.21-0.18,0.58-0.28,1.09-0.28v-0.8h-1.62H183.58z"/>
<path d="M167.3,19.46v3.71h-0.06c-0.14-1.12-0.57-2.07-1.29-2.84c-0.72-0.77-1.71-1.15-2.97-1.15c-1.43,0-2.5,0.43-3.2,1.3
	s-1.06,2.13-1.06,3.79v6.9c0,0.53-0.11,0.89-0.32,1.07c-0.21,0.18-0.58,0.28-1.09,0.28v0.8h1.62h2.51h1.62v-0.8
	c-0.51,0-0.87-0.09-1.09-0.28c-0.21-0.18-0.32-0.54-0.32-1.07v-6.35c0-1.41,0.15-2.42,0.46-3.03c0.31-0.61,0.89-0.92,1.75-0.92
	c1,0,1.82,0.53,2.47,1.59c0.64,1.06,0.97,2.84,0.97,5.33v3.37c0,0.53-0.11,0.89-0.32,1.07c-0.21,0.18-0.58,0.28-1.09,0.28v0.8h1.62
	h2.51h1.62v-0.8c-0.51,0-0.87-0.09-1.09-0.28c-0.21-0.18-0.32-0.54-0.32-1.07v-9.56c0-0.53,0.11-0.89,0.32-1.07
	c0.21-0.18,0.58-0.28,1.09-0.28v-0.8h-1.62H167.3z"/>
<path d="M150.26,19.19c-1.21,0-2.22,0.33-3.05,1c-0.73,0.59-1.2,1.26-1.43,2.02v-6.26c0-0.53,0.11-0.89,0.32-1.07
	s0.58-0.28,1.09-0.28v-0.8h-1.62h-2.73v17.38c0,0.53-0.11,0.89-0.32,1.07c-0.21,0.18-0.58,0.28-1.09,0.28v0.8h1.62h2.73V30.3
	c0.24,0.82,0.72,1.54,1.46,2.17c0.83,0.71,1.83,1.06,3.02,1.06c1.7,0,3.05-0.54,4.06-1.62c1.01-1.08,1.52-2.93,1.52-5.55
	s-0.51-4.46-1.52-5.55C153.31,19.73,151.95,19.19,150.26,19.19z M152.03,30.59c-0.45,0.98-1.3,1.47-2.54,1.47
	c-0.63,0-1.23-0.17-1.79-0.52c-0.56-0.35-1.02-0.94-1.38-1.79c-0.36-0.85-0.54-1.98-0.54-3.39c0-1.41,0.18-2.54,0.54-3.39
	s0.82-1.45,1.38-1.79c0.56-0.35,1.16-0.52,1.79-0.52c1.21,0,2.04,0.5,2.51,1.5c0.47,1,0.7,2.4,0.7,4.2
	C152.71,28.2,152.48,29.61,152.03,30.59z"/>
<path d="M129.44,15.2h-1.04v4.78l-2.48-0.52h-2.39v1.72h4.87v8.15c0,0.74-0.18,1.31-0.55,1.72c-0.37,0.41-0.88,0.61-1.53,0.61
	c-0.65,0-1.12-0.22-1.41-0.66c-0.29-0.44-0.47-0.99-0.55-1.64h-0.61c0.02,1.1,0.28,2.07,0.78,2.91c0.5,0.84,1.49,1.26,2.96,1.26
	c1.25,0,2.2-0.38,2.87-1.13c0.66-0.76,1-1.84,1-3.25v-7.97h2.27v-1.2c-1.37-0.18-2.38-0.66-3.02-1.44
	C129.95,17.77,129.57,16.65,129.44,15.2z"/>
<path d="M117.83,13.79v9.38h-0.06c-0.14-1.12-0.57-2.07-1.29-2.84c-0.71-0.77-1.71-1.15-2.97-1.15c-1.43,0-2.5,0.43-3.2,1.3
	c-0.7,0.87-1.06,2.13-1.06,3.79v6.9c0,0.53-0.11,0.89-0.32,1.07c-0.21,0.18-0.58,0.28-1.09,0.28v0.8h1.62h2.51h1.62v-0.8
	c-0.51,0-0.87-0.09-1.09-0.28c-0.21-0.18-0.32-0.54-0.32-1.07v-6.35c0-1.41,0.15-2.42,0.46-3.03c0.31-0.61,0.89-0.92,1.75-0.92
	c1,0,1.82,0.53,2.47,1.59c0.64,1.06,0.96,2.84,0.96,5.33v3.37c0,0.53-0.11,0.89-0.32,1.07c-0.21,0.18-0.58,0.28-1.09,0.28v0.8h1.62
	h2.51h1.62v-0.8c-0.51,0-0.87-0.09-1.09-0.28c-0.21-0.18-0.32-0.54-0.32-1.07V15.94c0-0.53,0.11-0.89,0.32-1.07
	c0.21-0.18,0.58-0.28,1.09-0.28v-0.8h-1.62H117.83z"/>
<path d="M99.62,19.19c-1.8,0-3.18,0.49-4.15,1.46c-0.97,0.97-1.46,2.31-1.46,4.03c0,0.67,0.02,1.18,0.06,1.5l9.09,0.28
	c-0.04,1.69-0.43,3-1.21,3.92c-0.82,0.96-1.95,1.44-3.4,1.44c-0.76,0-1.41-0.13-1.95-0.4s-0.98-0.59-1.3-0.98s-0.6-0.81-0.83-1.26
	l-0.61,0.25c0.21,0.63,0.51,1.25,0.92,1.85c0.41,0.6,0.99,1.13,1.73,1.58c0.75,0.45,1.66,0.67,2.74,0.67c2.08,0,3.73-0.62,4.93-1.85
	c1.21-1.24,1.81-3.03,1.81-5.38c0-2.31-0.57-4.07-1.7-5.29C103.16,19.8,101.6,19.19,99.62,19.19z M97.52,21.52
	c0.5-0.57,1.17-0.86,2.01-0.86c1.12,0,2.01,0.44,2.67,1.33c0.56,0.76,0.87,1.93,0.95,3.45l-6.2-0.5c-0.1-0.4-0.17-0.83-0.17-1.34
	C96.77,22.79,97.02,22.09,97.52,21.52z"/>
<path d="M83.63,30.93c-0.81,0.76-1.83,1.13-3.08,1.13c-0.88,0-1.57-0.2-2.07-0.61s-0.75-0.99-0.75-1.75c0-0.55,0.16-1.01,0.49-1.36
	s0.82-0.62,1.47-0.78l2.73-0.71c1.02-0.27,1.79-0.68,2.31-1.26c0.52-0.57,0.78-1.3,0.78-2.18c0-1.23-0.47-2.24-1.41-3.03
	c-0.94-0.8-2.24-1.2-3.89-1.2c-0.86,0-1.68,0.13-2.47,0.38c-0.79,0.26-1.45,0.62-1.98,1.09l-0.31,3.62l0.52,0.06
	c0.45-1.23,1.01-2.15,1.67-2.76c0.66-0.61,1.52-0.92,2.56-0.92c0.76,0,1.39,0.19,1.9,0.58c0.51,0.39,0.77,0.89,0.77,1.5
	c0,0.49-0.14,0.87-0.41,1.15c-0.28,0.28-0.82,0.53-1.64,0.75l-2.36,0.64c-1.27,0.35-2.15,0.87-2.64,1.58
	c-0.49,0.71-0.74,1.56-0.74,2.56c0,1.57,0.53,2.65,1.58,3.23c1.05,0.58,2.31,0.87,3.79,0.87c1.33,0,2.44-0.22,3.33-0.66
	s1.57-0.96,2.04-1.55V27.5H85.3C85,29.03,84.44,30.17,83.63,30.93z"/>
<path d="M67.95,19.19c-1.21,0-2.22,0.33-3.05,1c-0.73,0.59-1.2,1.26-1.42,2.02v-2.74h-2.73h-1.62v0.8c0.51,0,0.87,0.09,1.09,0.28
	c0.21,0.18,0.32,0.54,0.32,1.07v15.51c0,0.53-0.11,0.89-0.32,1.07c-0.21,0.18-0.58,0.28-1.09,0.28v0.8h1.62h2.73v-8.96
	c0.24,0.82,0.72,1.54,1.46,2.17c0.83,0.71,1.83,1.06,3.02,1.06c1.7,0,3.05-0.54,4.06-1.62c1.01-1.08,1.52-2.93,1.52-5.55
	s-0.51-4.46-1.52-5.55C71,19.73,69.65,19.19,67.95,19.19z M69.73,30.59c-0.45,0.98-1.3,1.47-2.54,1.47c-0.63,0-1.23-0.17-1.79-0.52
	c-0.56-0.35-1.02-0.94-1.38-1.79c-0.36-0.85-0.54-1.98-0.54-3.39c0-1.41,0.18-2.54,0.54-3.39s0.82-1.45,1.38-1.79
	c0.56-0.35,1.16-0.52,1.79-0.52c1.21,0,2.04,0.5,2.51,1.5c0.47,1,0.71,2.4,0.71,4.2C70.41,28.2,70.18,29.61,69.73,30.59z"/>
<path d="M54.25,19.46v8.43c0,1.41-0.15,2.42-0.46,3.03c-0.31,0.61-0.89,0.92-1.75,0.92c-0.98,0-1.78-0.53-2.41-1.59
	c-0.62-1.06-0.94-2.84-0.94-5.33v-3.31c0-0.53,0.11-0.89,0.32-1.07c0.21-0.18,0.58-0.28,1.09-0.28v-0.8h-1.62h-2.73v11.71
	c0,0.53-0.11,0.89-0.32,1.07c-0.21,0.18-0.58,0.28-1.09,0.28v0.8h1.62h2.73v-3.28c0.18,0.89,0.58,1.68,1.21,2.33
	c0.75,0.78,1.75,1.16,3.02,1.16c1.45,0,2.52-0.39,3.22-1.16c0.69-0.78,1.04-1.98,1.04-3.62v-7.14c0-0.53,0.11-0.89,0.32-1.07
	c0.21-0.18,0.58-0.28,1.09-0.28v-0.8h-1.62H54.25z"/>
<path d="M34.16,25.4c0-0.17-0.01-0.33-0.01-0.51c0-1.37,0.23-2.42,0.67-3.14s1.14-1.09,2.08-1.09c0.78,0,1.37,0.21,1.78,0.63
	c0.41,0.42,0.61,0.97,0.61,1.64c0,0.18-0.01,0.36-0.05,0.52c-0.03,0.16-0.07,0.33-0.11,0.49v0.09l2.67,0.25l0.03-0.06
	c0.14-0.51,0.21-0.89,0.21-1.13c0-1.12-0.49-2.05-1.46-2.79c-0.97-0.74-2.25-1.1-3.85-1.1c-1.57,0-2.75,0.33-3.54,0.98
	c-0.79,0.65-1.28,1.44-1.49,2.36c-0.2,0.92-0.31,2-0.31,3.25v5.4c0,0.53-0.11,0.89-0.32,1.07c-0.21,0.18-0.58,0.28-1.09,0.28v0.8
	h1.62h2.36v-3.89h0.09c0.25,1.19,0.7,2.17,1.36,2.94c0.66,0.78,1.63,1.16,2.9,1.16c1.35,0,2.37-0.39,3.07-1.16
	c0.7-0.78,1.04-1.96,1.04-3.56c0-0.98-0.15-1.83-0.46-2.54L34.16,25.4z M39.13,31.11c-0.34,0.49-0.83,0.74-1.49,0.74
	c-0.63,0-1.21-0.26-1.75-0.77c-0.53-0.51-0.96-1.29-1.27-2.33c-0.21-0.7-0.35-1.53-0.42-2.46l5.16,1.05
	c0.18,0.45,0.28,1.05,0.28,1.81C39.63,29.97,39.46,30.62,39.13,31.11z"/>
<path d="M23.94,19.46v4.9h-0.06c-0.25-1.43-0.68-2.64-1.32-3.62c-0.63-0.98-1.55-1.47-2.76-1.47c-0.57,0-1.1,0.11-1.58,0.32
	c-0.48,0.21-0.84,0.52-1.09,0.9l1.01,2.82l0.34-0.09c-0.02-0.45,0.14-0.85,0.49-1.2c0.35-0.35,0.82-0.52,1.41-0.52
	c1.04,0,1.9,0.59,2.56,1.76c0.67,1.18,1,3.15,1,5.93v1.96c0,0.53-0.11,0.89-0.32,1.07c-0.21,0.18-0.58,0.28-1.09,0.28v0.8h1.62h2.51
	h1.62v-0.8c-0.51,0-0.87-0.09-1.09-0.28c-0.21-0.18-0.32-0.54-0.32-1.07v-9.56c0-0.53,0.11-0.89,0.32-1.07
	c0.21-0.18,0.58-0.28,1.09-0.28v-0.8h-1.62H23.94z"/>
<path d="M9.68,19.19c-1.8,0-3.18,0.49-4.15,1.46c-0.97,0.97-1.46,2.31-1.46,4.03c0,0.67,0.02,1.18,0.06,1.5l9.09,0.28
	c-0.04,1.69-0.43,3-1.21,3.92c-0.82,0.96-1.95,1.44-3.4,1.44c-0.76,0-1.41-0.13-1.95-0.4s-0.98-0.59-1.3-0.98s-0.6-0.81-0.83-1.26
	l-0.61,0.25c0.21,0.63,0.51,1.25,0.92,1.85c0.41,0.6,0.99,1.13,1.73,1.58c0.75,0.45,1.66,0.67,2.74,0.67c2.08,0,3.73-0.62,4.93-1.85
	c1.21-1.24,1.81-3.03,1.81-5.38c0-2.31-0.57-4.07-1.7-5.29C13.22,19.8,11.67,19.19,9.68,19.19z M7.58,21.52
	c0.5-0.57,1.17-0.86,2.01-0.86c1.12,0,2.01,0.44,2.67,1.33c0.56,0.76,0.87,1.93,0.95,3.45L7,24.94c-0.1-0.4-0.17-0.83-0.17-1.34
	C6.83,22.79,7.08,22.09,7.58,21.52z"/>
<path d="M302.49,57.72c-0.32-0.18-0.51-0.53-0.57-1.04l-2.12-15.3c-0.06-0.53,0.01-0.88,0.21-1.06c0.2-0.17,0.6-0.26,1.2-0.26v-0.8
	h-1.93h-0.43h-1.44h-1.56l-5.21,16.77c-0.01-0.28-0.02-0.58-0.04-0.85c-0.07-0.93-0.3-1.96-0.69-3.08l-4.44-12.84h-0.43h-1.44h-1.29
	h-1.93v0.8c0.59,0,0.99,0.09,1.2,0.26c0.2,0.17,0.27,0.53,0.18,1.06l-2.21,15.3c-0.08,0.51-0.28,0.86-0.6,1.04
	c-0.32,0.18-0.78,0.28-1.39,0.28v0.8h1.93h2.39h2.61V58c-0.8,0-1.34-0.09-1.64-0.26c-0.3-0.17-0.4-0.53-0.32-1.06l2.05-14.24
	l5.06,16.35h0.15h0.86h2.05l5.16-16.34l1.95,14.23c0.06,0.53-0.06,0.88-0.35,1.06c-0.3,0.17-0.84,0.26-1.64,0.26v0.8h2.61h1.53h1.93
	V58C303.27,58,302.81,57.9,302.49,57.72z"/>
<path d="M273.59,45.53c-0.99-0.58-2.18-0.87-3.57-0.87s-2.58,0.29-3.57,0.87c-0.99,0.58-1.75,1.42-2.27,2.5
	c-0.52,1.08-0.78,2.35-0.78,3.8s0.26,2.72,0.78,3.8c0.52,1.08,1.28,1.92,2.27,2.5c0.99,0.58,2.18,0.87,3.57,0.87
	c2.08,0,3.71-0.64,4.87-1.93c1.17-1.29,1.75-3.03,1.75-5.24c0-1.45-0.26-2.72-0.78-3.8C275.33,46.95,274.58,46.12,273.59,45.53z
	 M272.67,55.99c-0.56,1.03-1.45,1.55-2.65,1.55c-1.21,0-2.09-0.52-2.65-1.55c-0.56-1.03-0.84-2.42-0.84-4.15s0.28-3.12,0.84-4.15
	c0.56-1.03,1.45-1.55,2.65-1.55c1.21,0,2.09,0.52,2.65,1.55c0.56,1.03,0.84,2.42,0.84,4.15S273.23,54.96,272.67,55.99z"/>
<path d="M258.89,44.94l-3.29,11.9l-2.57-9.82c-0.14-0.53-0.07-0.88,0.23-1.04c0.3-0.16,0.91-0.25,1.85-0.25v-0.8h-3.03h-1.23h-1.62
	v0.8c0.53,0,0.96,0.09,1.29,0.26c0.33,0.17,0.55,0.52,0.67,1.03l3.16,11.77H258l3.28-11.8c0.14-0.49,0.38-0.82,0.71-1
	c0.33-0.17,0.76-0.26,1.29-0.26v-0.8h-1.62H258.89z"/>
<path d="M241.75,44.66c-1.8,0-3.18,0.49-4.15,1.46s-1.46,2.31-1.46,4.03c0,0.67,0.02,1.18,0.06,1.5l9.09,0.28
	c-0.04,1.69-0.43,3-1.21,3.92c-0.82,0.96-1.95,1.44-3.4,1.44c-0.76,0-1.4-0.13-1.95-0.4c-0.54-0.27-0.98-0.59-1.3-0.98
	c-0.33-0.39-0.6-0.81-0.83-1.26l-0.61,0.25c0.2,0.63,0.51,1.25,0.92,1.85c0.41,0.6,0.99,1.13,1.73,1.58
	c0.75,0.45,1.66,0.67,2.74,0.67c2.08,0,3.73-0.62,4.94-1.85c1.21-1.24,1.81-3.03,1.81-5.38c0-2.31-0.57-4.07-1.7-5.29
	C245.29,45.27,243.74,44.66,241.75,44.66z M239.65,46.99c0.5-0.57,1.17-0.86,2.01-0.86c1.12,0,2.01,0.44,2.67,1.33
	c0.56,0.76,0.87,1.93,0.95,3.45l-6.2-0.5c-0.1-0.4-0.17-0.83-0.17-1.34C238.9,48.26,239.15,47.56,239.65,46.99z"/>
<path d="M219.51,50.87c0-0.17-0.01-0.33-0.01-0.51c0-1.37,0.23-2.42,0.67-3.14c0.45-0.73,1.14-1.09,2.08-1.09
	c0.78,0,1.37,0.21,1.78,0.63c0.41,0.42,0.61,0.97,0.61,1.64c0,0.18-0.02,0.36-0.05,0.52c-0.03,0.16-0.07,0.33-0.11,0.49v0.09
	l2.67,0.25l0.03-0.06c0.14-0.51,0.21-0.89,0.21-1.13c0-1.12-0.49-2.05-1.46-2.79c-0.97-0.74-2.25-1.1-3.85-1.1
	c-1.57,0-2.75,0.33-3.54,0.98c-0.79,0.65-1.28,1.44-1.49,2.36c-0.2,0.92-0.31,2-0.31,3.25v5.4c0,0.53-0.11,0.89-0.32,1.07
	c-0.21,0.18-0.58,0.28-1.09,0.28v0.8h1.62h2.36V54.9h0.09c0.25,1.19,0.7,2.17,1.36,2.94c0.66,0.78,1.63,1.16,2.9,1.16
	c1.35,0,2.37-0.39,3.06-1.16c0.7-0.78,1.04-1.96,1.04-3.56c0-0.98-0.15-1.83-0.46-2.54L219.51,50.87z M224.48,56.58
	c-0.34,0.49-0.83,0.74-1.49,0.74c-0.63,0-1.22-0.26-1.75-0.77c-0.53-0.51-0.96-1.29-1.27-2.33c-0.21-0.7-0.35-1.53-0.42-2.46
	l5.15,1.05c0.18,0.45,0.28,1.05,0.28,1.81C224.99,55.44,224.82,56.09,224.48,56.58z"/>
<path d="M209.29,44.94v4.9h-0.06c-0.25-1.43-0.68-2.64-1.32-3.62c-0.63-0.98-1.55-1.47-2.76-1.47c-0.57,0-1.1,0.11-1.58,0.32
	c-0.48,0.21-0.84,0.52-1.09,0.9l1.01,2.82l0.34-0.09c-0.02-0.45,0.14-0.85,0.49-1.2c0.35-0.35,0.82-0.52,1.41-0.52
	c1.04,0,1.9,0.59,2.56,1.76c0.66,1.18,1,3.15,1,5.93v1.96c0,0.53-0.11,0.89-0.32,1.07c-0.21,0.18-0.58,0.28-1.09,0.28v0.8h1.62h2.51
	h1.62V58c-0.51,0-0.87-0.09-1.09-0.28c-0.21-0.18-0.32-0.54-0.32-1.07v-9.56c0-0.53,0.11-0.89,0.32-1.07
	c0.21-0.18,0.58-0.28,1.09-0.28v-0.8h-1.62H209.29z"/>
<path d="M199.13,45.53c-0.99-0.58-2.18-0.87-3.57-0.87s-2.58,0.29-3.57,0.87c-0.99,0.58-1.75,1.42-2.27,2.5
	c-0.52,1.08-0.78,2.35-0.78,3.8s0.26,2.72,0.78,3.8c0.52,1.08,1.28,1.92,2.27,2.5c0.99,0.58,2.18,0.87,3.57,0.87
	c2.08,0,3.71-0.64,4.87-1.93c1.17-1.29,1.75-3.03,1.75-5.24c0-1.45-0.26-2.72-0.78-3.8C200.88,46.95,200.12,46.12,199.13,45.53z
	 M198.21,55.99c-0.56,1.03-1.45,1.55-2.65,1.55c-1.21,0-2.09-0.52-2.65-1.55c-0.56-1.03-0.84-2.42-0.84-4.15s0.28-3.12,0.84-4.15
	c0.56-1.03,1.45-1.55,2.65-1.55c1.21,0,2.09,0.52,2.65,1.55c0.56,1.03,0.84,2.42,0.84,4.15S198.77,54.96,198.21,55.99z"/>
<path d="M183.58,44.94v8.43c0,1.41-0.15,2.42-0.46,3.03c-0.31,0.61-0.89,0.92-1.75,0.92c-0.98,0-1.78-0.53-2.41-1.59
	c-0.62-1.06-0.93-2.84-0.93-5.33v-3.31c0-0.53,0.11-0.89,0.32-1.07c0.21-0.18,0.58-0.28,1.09-0.28v-0.8h-1.62h-2.73v11.71
	c0,0.53-0.11,0.89-0.32,1.07c-0.21,0.18-0.58,0.28-1.09,0.28v0.8h1.62h2.73v-3.28c0.18,0.89,0.58,1.67,1.21,2.33
	c0.75,0.78,1.75,1.16,3.02,1.16c1.45,0,2.52-0.39,3.22-1.16c0.69-0.78,1.04-1.98,1.04-3.62v-7.14c0-0.53,0.11-0.89,0.32-1.07
	c0.21-0.18,0.58-0.28,1.09-0.28v-0.8h-1.62H183.58z"/>
<path d="M167.3,44.94v3.71h-0.06c-0.14-1.12-0.57-2.07-1.29-2.84c-0.72-0.77-1.71-1.15-2.97-1.15c-1.43,0-2.5,0.43-3.2,1.3
	s-1.06,2.13-1.06,3.79v6.9c0,0.53-0.11,0.89-0.32,1.07c-0.21,0.18-0.58,0.28-1.09,0.28v0.8h1.62h2.51h1.62V58
	c-0.51,0-0.87-0.09-1.09-0.28c-0.21-0.18-0.32-0.54-0.32-1.07V50.3c0-1.41,0.15-2.42,0.46-3.03c0.31-0.61,0.89-0.92,1.75-0.92
	c1,0,1.82,0.53,2.47,1.59c0.64,1.06,0.97,2.84,0.97,5.33v3.37c0,0.53-0.11,0.89-0.32,1.07c-0.21,0.18-0.58,0.28-1.09,0.28v0.8h1.62
	h2.51h1.62V58c-0.51,0-0.87-0.09-1.09-0.28c-0.21-0.18-0.32-0.54-0.32-1.07v-9.56c0-0.53,0.11-0.89,0.32-1.07
	c0.21-0.18,0.58-0.28,1.09-0.28v-0.8h-1.62H167.3z"/>
<path d="M150.26,44.66c-1.21,0-2.22,0.33-3.05,1c-0.73,0.59-1.2,1.26-1.43,2.02v-6.26c0-0.53,0.11-0.89,0.32-1.07
	s0.58-0.28,1.09-0.28v-0.8h-1.62h-2.73v17.38c0,0.53-0.11,0.89-0.32,1.07c-0.21,0.18-0.58,0.28-1.09,0.28v0.8h1.62h2.73v-3.01
	c0.24,0.82,0.72,1.54,1.46,2.17c0.83,0.71,1.83,1.06,3.02,1.06c1.7,0,3.05-0.54,4.06-1.62c1.01-1.08,1.52-2.93,1.52-5.55
	s-0.51-4.46-1.52-5.55C153.31,45.2,151.95,44.66,150.26,44.66z M152.03,56.06c-0.45,0.98-1.3,1.47-2.54,1.47
	c-0.63,0-1.23-0.17-1.79-0.52c-0.56-0.35-1.02-0.94-1.38-1.79c-0.36-0.85-0.54-1.98-0.54-3.39c0-1.41,0.18-2.54,0.54-3.39
	s0.82-1.45,1.38-1.79c0.56-0.35,1.16-0.52,1.79-0.52c1.21,0,2.04,0.5,2.51,1.5c0.47,1,0.7,2.4,0.7,4.2
	C152.71,53.67,152.48,55.08,152.03,56.06z"/>
<path d="M129.44,40.68h-1.04v4.78l-2.48-0.52h-2.39v1.72h4.87v8.15c0,0.74-0.18,1.31-0.55,1.72c-0.37,0.41-0.88,0.61-1.53,0.61
	c-0.65,0-1.12-0.22-1.41-0.66c-0.29-0.44-0.47-0.99-0.55-1.64h-0.61c0.02,1.1,0.28,2.07,0.78,2.91c0.5,0.84,1.49,1.26,2.96,1.26
	c1.25,0,2.2-0.38,2.87-1.13c0.66-0.76,1-1.84,1-3.25v-7.97h2.27v-1.2c-1.37-0.18-2.38-0.66-3.02-1.44
	C129.95,43.24,129.57,42.13,129.44,40.68z"/>
<path d="M117.83,39.27v9.38h-0.06c-0.14-1.12-0.57-2.07-1.29-2.84c-0.71-0.77-1.71-1.15-2.97-1.15c-1.43,0-2.5,0.43-3.2,1.3
	c-0.7,0.87-1.06,2.13-1.06,3.79v6.9c0,0.53-0.11,0.89-0.32,1.07c-0.21,0.18-0.58,0.28-1.09,0.28v0.8h1.62h2.51h1.62V58
	c-0.51,0-0.87-0.09-1.09-0.28c-0.21-0.18-0.32-0.54-0.32-1.07V50.3c0-1.41,0.15-2.42,0.46-3.03c0.31-0.61,0.89-0.92,1.75-0.92
	c1,0,1.82,0.53,2.47,1.59c0.64,1.06,0.96,2.84,0.96,5.33v3.37c0,0.53-0.11,0.89-0.32,1.07c-0.21,0.18-0.58,0.28-1.09,0.28v0.8h1.62
	h2.51h1.62V58c-0.51,0-0.87-0.09-1.09-0.28c-0.21-0.18-0.32-0.54-0.32-1.07V41.41c0-0.53,0.11-0.89,0.32-1.07
	c0.21-0.18,0.58-0.28,1.09-0.28v-0.8h-1.62H117.83z"/>
<path d="M99.62,44.66c-1.8,0-3.18,0.49-4.15,1.46c-0.97,0.97-1.46,2.31-1.46,4.03c0,0.67,0.02,1.18,0.06,1.5l9.09,0.28
	c-0.04,1.69-0.43,3-1.21,3.92c-0.82,0.96-1.95,1.44-3.4,1.44c-0.76,0-1.41-0.13-1.95-0.4s-0.98-0.59-1.3-0.98s-0.6-0.81-0.83-1.26
	l-0.61,0.25c0.21,0.63,0.51,1.25,0.92,1.85c0.41,0.6,0.99,1.13,1.73,1.58c0.75,0.45,1.66,0.67,2.74,0.67c2.08,0,3.73-0.62,4.93-1.85
	c1.21-1.24,1.81-3.03,1.81-5.38c0-2.31-0.57-4.07-1.7-5.29C103.16,45.27,101.6,44.66,99.62,44.66z M97.52,46.99
	c0.5-0.57,1.17-0.86,2.01-0.86c1.12,0,2.01,0.44,2.67,1.33c0.56,0.76,0.87,1.93,0.95,3.45l-6.2-0.5c-0.1-0.4-0.17-0.83-0.17-1.34
	C96.77,48.26,97.02,47.56,97.52,46.99z"/>
<path d="M83.63,56.4c-0.81,0.76-1.83,1.13-3.08,1.13c-0.88,0-1.57-0.2-2.07-0.61s-0.75-0.99-0.75-1.75c0-0.55,0.16-1.01,0.49-1.36
	s0.82-0.62,1.47-0.78l2.73-0.71c1.02-0.27,1.79-0.68,2.31-1.26c0.52-0.57,0.78-1.3,0.78-2.18c0-1.23-0.47-2.24-1.41-3.03
	c-0.94-0.8-2.24-1.2-3.89-1.2c-0.86,0-1.68,0.13-2.47,0.38c-0.79,0.26-1.45,0.62-1.98,1.09l-0.31,3.62l0.52,0.06
	c0.45-1.23,1.01-2.15,1.67-2.76c0.66-0.61,1.52-0.92,2.56-0.92c0.76,0,1.39,0.19,1.9,0.58c0.51,0.39,0.77,0.89,0.77,1.5
	c0,0.49-0.14,0.87-0.41,1.15c-0.28,0.28-0.82,0.53-1.64,0.75l-2.36,0.64c-1.27,0.35-2.15,0.87-2.64,1.58
	c-0.49,0.71-0.74,1.56-0.74,2.56c0,1.57,0.53,2.65,1.58,3.23c1.05,0.58,2.31,0.87,3.79,0.87c1.33,0,2.44-0.22,3.33-0.66
	s1.57-0.96,2.04-1.55v-3.83H85.3C85,54.5,84.44,55.65,83.63,56.4z"/>
<path d="M67.95,44.66c-1.21,0-2.22,0.33-3.05,1c-0.73,0.59-1.2,1.26-1.42,2.02v-2.74h-2.73h-1.62v0.8c0.51,0,0.87,0.09,1.09,0.28
	c0.21,0.18,0.32,0.54,0.32,1.07v15.51c0,0.53-0.11,0.89-0.32,1.07c-0.21,0.18-0.58,0.28-1.09,0.28v0.8h1.62h2.73v-8.96
	c0.24,0.82,0.72,1.54,1.46,2.17c0.83,0.71,1.83,1.06,3.02,1.06c1.7,0,3.05-0.54,4.06-1.62c1.01-1.08,1.52-2.93,1.52-5.55
	s-0.51-4.46-1.52-5.55C71,45.2,69.65,44.66,67.95,44.66z M69.73,56.06c-0.45,0.98-1.3,1.47-2.54,1.47c-0.63,0-1.23-0.17-1.79-0.52
	c-0.56-0.35-1.02-0.94-1.38-1.79c-0.36-0.85-0.54-1.98-0.54-3.39c0-1.41,0.18-2.54,0.54-3.39s0.82-1.45,1.38-1.79
	c0.56-0.35,1.16-0.52,1.79-0.52c1.21,0,2.04,0.5,2.51,1.5c0.47,1,0.71,2.4,0.71,4.2C70.41,53.67,70.18,55.08,69.73,56.06z"/>
<path d="M54.25,44.94v8.43c0,1.41-0.15,2.42-0.46,3.03c-0.31,0.61-0.89,0.92-1.75,0.92c-0.98,0-1.78-0.53-2.41-1.59
	c-0.62-1.06-0.94-2.84-0.94-5.33v-3.31c0-0.53,0.11-0.89,0.32-1.07c0.21-0.18,0.58-0.28,1.09-0.28v-0.8h-1.62h-2.73v11.71
	c0,0.53-0.11,0.89-0.32,1.07C45.22,57.9,44.86,58,44.35,58v0.8h1.62h2.73v-3.28c0.18,0.89,0.58,1.68,1.21,2.33
	c0.75,0.78,1.75,1.16,3.02,1.16c1.45,0,2.52-0.39,3.22-1.16c0.69-0.78,1.04-1.98,1.04-3.62v-7.14c0-0.53,0.11-0.89,0.32-1.07
	c0.21-0.18,0.58-0.28,1.09-0.28v-0.8h-1.62H54.25z"/>
<path d="M34.16,50.87c0-0.17-0.01-0.33-0.01-0.51c0-1.37,0.23-2.42,0.67-3.14s1.14-1.09,2.08-1.09c0.78,0,1.37,0.21,1.78,0.63
	c0.41,0.42,0.61,0.97,0.61,1.64c0,0.18-0.01,0.36-0.05,0.52c-0.03,0.16-0.07,0.33-0.11,0.49v0.09l2.67,0.25l0.03-0.06
	c0.14-0.51,0.21-0.89,0.21-1.13c0-1.12-0.49-2.05-1.46-2.79c-0.97-0.74-2.25-1.1-3.85-1.1c-1.57,0-2.75,0.33-3.54,0.98
	c-0.79,0.65-1.28,1.44-1.49,2.36c-0.2,0.92-0.31,2-0.31,3.25v5.4c0,0.53-0.11,0.89-0.32,1.07C30.88,57.9,30.52,58,30.01,58v0.8h1.62
	h2.36V54.9h0.09c0.25,1.19,0.7,2.17,1.36,2.94c0.66,0.78,1.63,1.16,2.9,1.16c1.35,0,2.37-0.39,3.07-1.16
	c0.7-0.78,1.04-1.96,1.04-3.56c0-0.98-0.15-1.83-0.46-2.54L34.16,50.87z M39.13,56.58c-0.34,0.49-0.83,0.74-1.49,0.74
	c-0.63,0-1.21-0.26-1.75-0.77c-0.53-0.51-0.96-1.29-1.27-2.33c-0.21-0.7-0.35-1.53-0.42-2.46l5.16,1.05
	c0.18,0.45,0.28,1.05,0.28,1.81C39.63,55.44,39.46,56.09,39.13,56.58z"/>
<path d="M23.94,44.94v4.9h-0.06c-0.25-1.43-0.68-2.64-1.32-3.62c-0.63-0.98-1.55-1.47-2.76-1.47c-0.57,0-1.1,0.11-1.58,0.32
	c-0.48,0.21-0.84,0.52-1.09,0.9l1.01,2.82l0.34-0.09c-0.02-0.45,0.14-0.85,0.49-1.2c0.35-0.35,0.82-0.52,1.41-0.52
	c1.04,0,1.9,0.59,2.56,1.76c0.67,1.18,1,3.15,1,5.93v1.96c0,0.53-0.11,0.89-0.32,1.07C23.4,57.9,23.04,58,22.53,58v0.8h1.62h2.51
	h1.62V58c-0.51,0-0.87-0.09-1.09-0.28c-0.21-0.18-0.32-0.54-0.32-1.07v-9.56c0-0.53,0.11-0.89,0.32-1.07
	c0.21-0.18,0.58-0.28,1.09-0.28v-0.8h-1.62H23.94z"/>
<path d="M9.68,44.66c-1.8,0-3.18,0.49-4.15,1.46c-0.97,0.97-1.46,2.31-1.46,4.03c0,0.67,0.02,1.18,0.06,1.5l9.09,0.28
	c-0.04,1.69-0.43,3-1.21,3.92c-0.82,0.96-1.95,1.44-3.4,1.44c-0.76,0-1.41-0.13-1.95-0.4s-0.98-0.59-1.3-0.98s-0.6-0.81-0.83-1.26
	L3.92,54.9c0.21,0.63,0.51,1.25,0.92,1.85c0.41,0.6,0.99,1.13,1.73,1.58c0.75,0.45,1.66,0.67,2.74,0.67c2.08,0,3.73-0.62,4.93-1.85
	c1.21-1.24,1.81-3.03,1.81-5.38c0-2.31-0.57-4.07-1.7-5.29C13.22,45.27,11.67,44.66,9.68,44.66z M7.58,46.99
	c0.5-0.57,1.17-0.86,2.01-0.86c1.12,0,2.01,0.44,2.67,1.33c0.56,0.76,0.87,1.93,0.95,3.45L7,50.41c-0.1-0.4-0.17-0.83-0.17-1.34
	C6.83,48.26,7.08,47.56,7.58,46.99z"/>
<path d="M302.49,83.19c-0.32-0.18-0.51-0.53-0.57-1.04l-2.12-15.3c-0.06-0.53,0.01-0.88,0.21-1.06c0.2-0.17,0.6-0.26,1.2-0.26v-0.8
	h-1.93h-0.43h-1.44h-1.56l-5.21,16.77c-0.01-0.28-0.02-0.58-0.04-0.85c-0.07-0.93-0.3-1.96-0.69-3.08l-4.44-12.84h-0.43h-1.44h-1.29
	h-1.93v0.8c0.59,0,0.99,0.09,1.2,0.26c0.2,0.17,0.27,0.53,0.18,1.06l-2.21,15.3c-0.08,0.51-0.28,0.86-0.6,1.04
	c-0.32,0.18-0.78,0.28-1.39,0.28v0.8h1.93h2.39h2.61v-0.8c-0.8,0-1.34-0.09-1.64-0.26c-0.3-0.17-0.4-0.53-0.32-1.06l2.05-14.24
	l5.06,16.35h0.15h0.86h2.05l5.16-16.34l1.95,14.23c0.06,0.53-0.06,0.88-0.35,1.06c-0.3,0.17-0.84,0.26-1.64,0.26v0.8h2.61h1.53h1.93
	v-0.8C303.27,83.47,302.81,83.38,302.49,83.19z"/>
<path d="M273.59,71.01c-0.99-0.58-2.18-0.87-3.57-0.87s-2.58,0.29-3.57,0.87c-0.99,0.58-1.75,1.42-2.27,2.5
	c-0.52,1.08-0.78,2.35-0.78,3.8s0.26,2.72,0.78,3.8c0.52,1.08,1.28,1.92,2.27,2.5c0.99,0.58,2.18,0.87,3.57,0.87
	c2.08,0,3.71-0.64,4.87-1.93c1.17-1.29,1.75-3.03,1.75-5.24c0-1.45-0.26-2.72-0.78-3.8C275.33,72.42,274.58,71.59,273.59,71.01z
	 M272.67,81.46c-0.56,1.03-1.45,1.55-2.65,1.55c-1.21,0-2.09-0.52-2.65-1.55c-0.56-1.03-0.84-2.42-0.84-4.15s0.28-3.12,0.84-4.15
	c0.56-1.03,1.45-1.55,2.65-1.55c1.21,0,2.09,0.52,2.65,1.55c0.56,1.03,0.84,2.42,0.84,4.15S273.23,80.43,272.67,81.46z"/>
<path d="M258.89,70.41l-3.29,11.9l-2.57-9.82c-0.14-0.53-0.07-0.88,0.23-1.04c0.3-0.16,0.91-0.25,1.85-0.25v-0.8h-3.03h-1.23h-1.62
	v0.8c0.53,0,0.96,0.09,1.29,0.26c0.33,0.17,0.55,0.52,0.67,1.03l3.16,11.77H258l3.28-11.8c0.14-0.49,0.38-0.82,0.71-1
	c0.33-0.17,0.76-0.26,1.29-0.26v-0.8h-1.62H258.89z"/>
<path d="M241.75,70.13c-1.8,0-3.18,0.49-4.15,1.46s-1.46,2.31-1.46,4.03c0,0.67,0.02,1.18,0.06,1.5l9.09,0.28
	c-0.04,1.69-0.43,3-1.21,3.92c-0.82,0.96-1.95,1.44-3.4,1.44c-0.76,0-1.4-0.13-1.95-0.4c-0.54-0.27-0.98-0.59-1.3-0.98
	c-0.33-0.39-0.6-0.81-0.83-1.26l-0.61,0.25c0.2,0.63,0.51,1.25,0.92,1.85c0.41,0.6,0.99,1.13,1.73,1.58
	c0.75,0.45,1.66,0.67,2.74,0.67c2.08,0,3.73-0.62,4.94-1.85c1.21-1.24,1.81-3.03,1.81-5.38c0-2.31-0.57-4.07-1.7-5.29
	C245.29,70.74,243.74,70.13,241.75,70.13z M239.65,72.46c0.5-0.57,1.17-0.86,2.01-0.86c1.12,0,2.01,0.44,2.67,1.33
	c0.56,0.76,0.87,1.93,0.95,3.45l-6.2-0.5c-0.1-0.4-0.17-0.83-0.17-1.34C238.9,73.73,239.15,73.04,239.65,72.46z"/>
<path d="M219.51,76.34c0-0.17-0.01-0.33-0.01-0.51c0-1.37,0.23-2.42,0.67-3.14c0.45-0.73,1.14-1.09,2.08-1.09
	c0.78,0,1.37,0.21,1.78,0.63c0.41,0.42,0.61,0.97,0.61,1.64c0,0.18-0.02,0.36-0.05,0.52c-0.03,0.16-0.07,0.33-0.11,0.49v0.09
	l2.67,0.25l0.03-0.06c0.14-0.51,0.21-0.89,0.21-1.13c0-1.12-0.49-2.05-1.46-2.79c-0.97-0.74-2.25-1.1-3.85-1.1
	c-1.57,0-2.75,0.33-3.54,0.98c-0.79,0.65-1.28,1.44-1.49,2.36c-0.2,0.92-0.31,2-0.31,3.25v5.4c0,0.53-0.11,0.89-0.32,1.07
	c-0.21,0.18-0.58,0.28-1.09,0.28v0.8h1.62h2.36v-3.89h0.09c0.25,1.19,0.7,2.17,1.36,2.94c0.66,0.78,1.63,1.16,2.9,1.16
	c1.35,0,2.37-0.39,3.06-1.16c0.7-0.78,1.04-1.96,1.04-3.56c0-0.98-0.15-1.83-0.46-2.54L219.51,76.34z M224.48,82.06
	c-0.34,0.49-0.83,0.74-1.49,0.74c-0.63,0-1.22-0.26-1.75-0.77c-0.53-0.51-0.96-1.29-1.27-2.33c-0.21-0.7-0.35-1.53-0.42-2.46
	l5.15,1.05c0.18,0.45,0.28,1.05,0.28,1.81C224.99,80.91,224.82,81.57,224.48,82.06z"/>
<path d="M209.29,70.41v4.9h-0.06c-0.25-1.43-0.68-2.64-1.32-3.62c-0.63-0.98-1.55-1.47-2.76-1.47c-0.57,0-1.1,0.11-1.58,0.32
	c-0.48,0.21-0.84,0.52-1.09,0.9l1.01,2.82l0.34-0.09c-0.02-0.45,0.14-0.85,0.49-1.2c0.35-0.35,0.82-0.52,1.41-0.52
	c1.04,0,1.9,0.59,2.56,1.76c0.66,1.18,1,3.15,1,5.93v1.96c0,0.53-0.11,0.89-0.32,1.07c-0.21,0.18-0.58,0.28-1.09,0.28v0.8h1.62h2.51
	h1.62v-0.8c-0.51,0-0.87-0.09-1.09-0.28c-0.21-0.18-0.32-0.54-0.32-1.07v-9.56c0-0.53,0.11-0.89,0.32-1.07
	c0.21-0.18,0.58-0.28,1.09-0.28v-0.8h-1.62H209.29z"/>
<path d="M199.13,71.01c-0.99-0.58-2.18-0.87-3.57-0.87s-2.58,0.29-3.57,0.87c-0.99,0.58-1.75,1.42-2.27,2.5
	c-0.52,1.08-0.78,2.35-0.78,3.8s0.26,2.72,0.78,3.8c0.52,1.08,1.28,1.92,2.27,2.5c0.99,0.58,2.18,0.87,3.57,0.87
	c2.08,0,3.71-0.64,4.87-1.93c1.17-1.29,1.75-3.03,1.75-5.24c0-1.45-0.26-2.72-0.78-3.8C200.88,72.42,200.12,71.59,199.13,71.01z
	 M198.21,81.46c-0.56,1.03-1.45,1.55-2.65,1.55c-1.21,0-2.09-0.52-2.65-1.55c-0.56-1.03-0.84-2.42-0.84-4.15s0.28-3.12,0.84-4.15
	c0.56-1.03,1.45-1.55,2.65-1.55c1.21,0,2.09,0.52,2.65,1.55c0.56,1.03,0.84,2.42,0.84,4.15S198.77,80.43,198.21,81.46z"/>
<path d="M183.58,70.41v8.43c0,1.41-0.15,2.42-0.46,3.03c-0.31,0.61-0.89,0.92-1.75,0.92c-0.98,0-1.78-0.53-2.41-1.59
	c-0.62-1.06-0.93-2.84-0.93-5.33v-3.31c0-0.53,0.11-0.89,0.32-1.07c0.21-0.18,0.58-0.28,1.09-0.28v-0.8h-1.62h-2.73v11.71
	c0,0.53-0.11,0.89-0.32,1.07c-0.21,0.18-0.58,0.28-1.09,0.28v0.8h1.62h2.73v-3.28c0.18,0.89,0.58,1.67,1.21,2.33
	c0.75,0.78,1.75,1.16,3.02,1.16c1.45,0,2.52-0.39,3.22-1.16c0.69-0.78,1.04-1.98,1.04-3.62v-7.14c0-0.53,0.11-0.89,0.32-1.07
	c0.21-0.18,0.58-0.28,1.09-0.28v-0.8h-1.62H183.58z"/>
<path d="M167.3,70.41v3.71h-0.06c-0.14-1.12-0.57-2.07-1.29-2.84c-0.72-0.77-1.71-1.15-2.97-1.15c-1.43,0-2.5,0.43-3.2,1.3
	s-1.06,2.13-1.06,3.79v6.9c0,0.53-0.11,0.89-0.32,1.07c-0.21,0.18-0.58,0.28-1.09,0.28v0.8h1.62h2.51h1.62v-0.8
	c-0.51,0-0.87-0.09-1.09-0.28c-0.21-0.18-0.32-0.54-0.32-1.07v-6.35c0-1.41,0.15-2.42,0.46-3.03c0.31-0.61,0.89-0.92,1.75-0.92
	c1,0,1.82,0.53,2.47,1.59c0.64,1.06,0.97,2.84,0.97,5.33v3.37c0,0.53-0.11,0.89-0.32,1.07c-0.21,0.18-0.58,0.28-1.09,0.28v0.8h1.62
	h2.51h1.62v-0.8c-0.51,0-0.87-0.09-1.09-0.28c-0.21-0.18-0.32-0.54-0.32-1.07v-9.56c0-0.53,0.11-0.89,0.32-1.07
	c0.21-0.18,0.58-0.28,1.09-0.28v-0.8h-1.62H167.3z"/>
<path d="M150.26,70.13c-1.21,0-2.22,0.33-3.05,1c-0.73,0.59-1.2,1.26-1.43,2.02v-6.26c0-0.53,0.11-0.89,0.32-1.07
	s0.58-0.28,1.09-0.28v-0.8h-1.62h-2.73v17.38c0,0.53-0.11,0.89-0.32,1.07c-0.21,0.18-0.58,0.28-1.09,0.28v0.8h1.62h2.73v-3.01
	c0.24,0.82,0.72,1.54,1.46,2.17c0.83,0.71,1.83,1.06,3.02,1.06c1.7,0,3.05-0.54,4.06-1.62c1.01-1.08,1.52-2.93,1.52-5.55
	s-0.51-4.46-1.52-5.55C153.31,70.68,151.95,70.13,150.26,70.13z M152.03,81.54c-0.45,0.98-1.3,1.47-2.54,1.47
	c-0.63,0-1.23-0.17-1.79-0.52c-0.56-0.35-1.02-0.94-1.38-1.79c-0.36-0.85-0.54-1.98-0.54-3.39c0-1.41,0.18-2.54,0.54-3.39
	s0.82-1.45,1.38-1.79c0.56-0.35,1.16-0.52,1.79-0.52c1.21,0,2.04,0.5,2.51,1.5c0.47,1,0.7,2.4,0.7,4.2
	C152.71,79.15,152.48,80.56,152.03,81.54z"/>
<path d="M129.44,66.15h-1.04v4.78l-2.48-0.52h-2.39v1.72h4.87v8.15c0,0.74-0.18,1.31-0.55,1.72c-0.37,0.41-0.88,0.61-1.53,0.61
	c-0.65,0-1.12-0.22-1.41-0.66c-0.29-0.44-0.47-0.99-0.55-1.64h-0.61c0.02,1.1,0.28,2.07,0.78,2.91c0.5,0.84,1.49,1.26,2.96,1.26
	c1.25,0,2.2-0.38,2.87-1.13c0.66-0.76,1-1.84,1-3.25v-7.97h2.27v-1.2c-1.37-0.18-2.38-0.66-3.02-1.44
	C129.95,68.71,129.57,67.6,129.44,66.15z"/>
<path d="M117.83,64.74v9.38h-0.06c-0.14-1.12-0.57-2.07-1.29-2.84c-0.71-0.77-1.71-1.15-2.97-1.15c-1.43,0-2.5,0.43-3.2,1.3
	c-0.7,0.87-1.06,2.13-1.06,3.79v6.9c0,0.53-0.11,0.89-0.32,1.07c-0.21,0.18-0.58,0.28-1.09,0.28v0.8h1.62h2.51h1.62v-0.8
	c-0.51,0-0.87-0.09-1.09-0.28c-0.21-0.18-0.32-0.54-0.32-1.07v-6.35c0-1.41,0.15-2.42,0.46-3.03c0.31-0.61,0.89-0.92,1.75-0.92
	c1,0,1.82,0.53,2.47,1.59c0.64,1.06,0.96,2.84,0.96,5.33v3.37c0,0.53-0.11,0.89-0.32,1.07c-0.21,0.18-0.58,0.28-1.09,0.28v0.8h1.62
	h2.51h1.62v-0.8c-0.51,0-0.87-0.09-1.09-0.28c-0.21-0.18-0.32-0.54-0.32-1.07V66.88c0-0.53,0.11-0.89,0.32-1.07
	c0.21-0.18,0.58-0.28,1.09-0.28v-0.8h-1.62H117.83z"/>
<path d="M99.62,70.13c-1.8,0-3.18,0.49-4.15,1.46c-0.97,0.97-1.46,2.31-1.46,4.03c0,0.67,0.02,1.18,0.06,1.5l9.09,0.28
	c-0.04,1.69-0.43,3-1.21,3.92c-0.82,0.96-1.95,1.44-3.4,1.44c-0.76,0-1.41-0.13-1.95-0.4s-0.98-0.59-1.3-0.98s-0.6-0.81-0.83-1.26
	l-0.61,0.25c0.21,0.63,0.51,1.25,0.92,1.85c0.41,0.6,0.99,1.13,1.73,1.58c0.75,0.45,1.66,0.67,2.74,0.67c2.08,0,3.73-0.62,4.93-1.85
	c1.21-1.24,1.81-3.03,1.81-5.38c0-2.31-0.57-4.07-1.7-5.29C103.16,70.74,101.6,70.13,99.62,70.13z M97.52,72.46
	c0.5-0.57,1.17-0.86,2.01-0.86c1.12,0,2.01,0.44,2.67,1.33c0.56,0.76,0.87,1.93,0.95,3.45l-6.2-0.5c-0.1-0.4-0.17-0.83-0.17-1.34
	C96.77,73.73,97.02,73.04,97.52,72.46z"/>
<path d="M83.63,81.87c-0.81,0.76-1.83,1.13-3.08,1.13c-0.88,0-1.57-0.2-2.07-0.61s-0.75-0.99-0.75-1.75c0-0.55,0.16-1.01,0.49-1.36
	s0.82-0.62,1.47-0.78l2.73-0.71c1.02-0.27,1.79-0.68,2.31-1.26c0.52-0.57,0.78-1.3,0.78-2.18c0-1.23-0.47-2.24-1.41-3.03
	c-0.94-0.8-2.24-1.2-3.89-1.2c-0.86,0-1.68,0.13-2.47,0.38c-0.79,0.26-1.45,0.62-1.98,1.09l-0.31,3.62l0.52,0.06
	c0.45-1.23,1.01-2.15,1.67-2.76c0.66-0.61,1.52-0.92,2.56-0.92c0.76,0,1.39,0.19,1.9,0.58c0.51,0.39,0.77,0.89,0.77,1.5
	c0,0.49-0.14,0.87-0.41,1.15c-0.28,0.28-0.82,0.53-1.64,0.75l-2.36,0.64c-1.27,0.35-2.15,0.87-2.64,1.58
	c-0.49,0.71-0.74,1.56-0.74,2.56c0,1.57,0.53,2.65,1.58,3.23c1.05,0.58,2.31,0.87,3.79,0.87c1.33,0,2.44-0.22,3.33-0.66
	s1.57-0.96,2.04-1.55v-3.83H85.3C85,79.97,84.44,81.12,83.63,81.87z"/>
<path d="M67.95,70.13c-1.21,0-2.22,0.33-3.05,1c-0.73,0.59-1.2,1.26-1.42,2.02v-2.74h-2.73h-1.62v0.8c0.51,0,0.87,0.09,1.09,0.28
	c0.21,0.18,0.32,0.54,0.32,1.07v15.51c0,0.53-0.11,0.89-0.32,1.07c-0.21,0.18-0.58,0.28-1.09,0.28v0.8h1.62h2.73v-8.96
	c0.24,0.82,0.72,1.54,1.46,2.17c0.83,0.71,1.83,1.06,3.02,1.06c1.7,0,3.05-0.54,4.06-1.62c1.01-1.08,1.52-2.93,1.52-5.55
	s-0.51-4.46-1.52-5.55C71,70.68,69.65,70.13,67.95,70.13z M69.73,81.54c-0.45,0.98-1.3,1.47-2.54,1.47c-0.63,0-1.23-0.17-1.79-0.52
	c-0.56-0.35-1.02-0.94-1.38-1.79c-0.36-0.85-0.54-1.98-0.54-3.39c0-1.41,0.18-2.54,0.54-3.39s0.82-1.45,1.38-1.79
	c0.56-0.35,1.16-0.52,1.79-0.52c1.21,0,2.04,0.5,2.51,1.5c0.47,1,0.71,2.4,0.71,4.2C70.41,79.15,70.18,80.56,69.73,81.54z"/>
<path d="M54.25,70.41v8.43c0,1.41-0.15,2.42-0.46,3.03c-0.31,0.61-0.89,0.92-1.75,0.92c-0.98,0-1.78-0.53-2.41-1.59
	c-0.62-1.06-0.94-2.84-0.94-5.33v-3.31c0-0.53,0.11-0.89,0.32-1.07c0.21-0.18,0.58-0.28,1.09-0.28v-0.8h-1.62h-2.73v11.71
	c0,0.53-0.11,0.89-0.32,1.07c-0.21,0.18-0.58,0.28-1.09,0.28v0.8h1.62h2.73v-3.28c0.18,0.89,0.58,1.68,1.21,2.33
	c0.75,0.78,1.75,1.16,3.02,1.16c1.45,0,2.52-0.39,3.22-1.16c0.69-0.78,1.04-1.98,1.04-3.62v-7.14c0-0.53,0.11-0.89,0.32-1.07
	c0.21-0.18,0.58-0.28,1.09-0.28v-0.8h-1.62H54.25z"/>
<path d="M34.16,76.34c0-0.17-0.01-0.33-0.01-0.51c0-1.37,0.23-2.42,0.67-3.14s1.14-1.09,2.08-1.09c0.78,0,1.37,0.21,1.78,0.63
	c0.41,0.42,0.61,0.97,0.61,1.64c0,0.18-0.01,0.36-0.05,0.52c-0.03,0.16-0.07,0.33-0.11,0.49v0.09l2.67,0.25l0.03-0.06
	c0.14-0.51,0.21-0.89,0.21-1.13c0-1.12-0.49-2.05-1.46-2.79c-0.97-0.74-2.25-1.1-3.85-1.1c-1.57,0-2.75,0.33-3.54,0.98
	c-0.79,0.65-1.28,1.44-1.49,2.36c-0.2,0.92-0.31,2-0.31,3.25v5.4c0,0.53-0.11,0.89-0.32,1.07c-0.21,0.18-0.58,0.28-1.09,0.28v0.8
	h1.62h2.36v-3.89h0.09c0.25,1.19,0.7,2.17,1.36,2.94c0.66,0.78,1.63,1.16,2.9,1.16c1.35,0,2.37-0.39,3.07-1.16
	c0.7-0.78,1.04-1.96,1.04-3.56c0-0.98-0.15-1.83-0.46-2.54L34.16,76.34z M39.13,82.06c-0.34,0.49-0.83,0.74-1.49,0.74
	c-0.63,0-1.21-0.26-1.75-0.77c-0.53-0.51-0.96-1.29-1.27-2.33c-0.21-0.7-0.35-1.53-0.42-2.46l5.16,1.05
	c0.18,0.45,0.28,1.05,0.28,1.81C39.63,80.91,39.46,81.57,39.13,82.06z"/>
<path d="M23.94,70.41v4.9h-0.06c-0.25-1.43-0.68-2.64-1.32-3.62c-0.63-0.98-1.55-1.47-2.76-1.47c-0.57,0-1.1,0.11-1.58,0.32
	c-0.48,0.21-0.84,0.52-1.09,0.9l1.01,2.82l0.34-0.09c-0.02-0.45,0.14-0.85,0.49-1.2c0.35-0.35,0.82-0.52,1.41-0.52
	c1.04,0,1.9,0.59,2.56,1.76c0.67,1.18,1,3.15,1,5.93v1.96c0,0.53-0.11,0.89-0.32,1.07c-0.21,0.18-0.58,0.28-1.09,0.28v0.8h1.62h2.51
	h1.62v-0.8c-0.51,0-0.87-0.09-1.09-0.28c-0.21-0.18-0.32-0.54-0.32-1.07v-9.56c0-0.53,0.11-0.89,0.32-1.07
	c0.21-0.18,0.58-0.28,1.09-0.28v-0.8h-1.62H23.94z"/>
<path d="M9.68,70.13c-1.8,0-3.18,0.49-4.15,1.46c-0.97,0.97-1.46,2.31-1.46,4.03c0,0.67,0.02,1.18,0.06,1.5l9.09,0.28
	c-0.04,1.69-0.43,3-1.21,3.92c-0.82,0.96-1.95,1.44-3.4,1.44c-0.76,0-1.41-0.13-1.95-0.4s-0.98-0.59-1.3-0.98s-0.6-0.81-0.83-1.26
	l-0.61,0.25c0.21,0.63,0.51,1.25,0.92,1.85c0.41,0.6,0.99,1.13,1.73,1.58c0.75,0.45,1.66,0.67,2.74,0.67c2.08,0,3.73-0.62,4.93-1.85
	c1.21-1.24,1.81-3.03,1.81-5.38c0-2.31-0.57-4.07-1.7-5.29C13.22,70.74,11.67,70.13,9.68,70.13z M7.58,72.46
	c0.5-0.57,1.17-0.86,2.01-0.86c1.12,0,2.01,0.44,2.67,1.33c0.56,0.76,0.87,1.93,0.95,3.45L7,75.88c-0.1-0.4-0.17-0.83-0.17-1.34
	C6.83,73.73,7.08,73.04,7.58,72.46z"/>
</svg>
